<svg id="raw-svg" xmlns="http://www.w3.org/2000/svg" viewBox="0 0 512 512" width="100%" height="100%">
                <!-- Background de l'icône (Dark Mode type Simply Plural) -->
                <rect width="512" height="512" rx="112" fill="#1E1E2E"></rect>
                
                <!-- Goup des tuiles de la mosaïque -->
                <g>
                    <!-- Colonne 1 (Gauche) -->
                    <rect x="64" y="64" width="64" height="64" rx="20" fill="#F43F5E"></rect>
                    <rect x="64" y="144" width="64" height="64" rx="20" fill="#FF6B6B"></rect>
                    <rect x="64" y="224" width="64" height="64" rx="20" fill="#FFD93D"></rect>
                    <rect x="64" y="304" width="64" height="64" rx="20" fill="#A3E635"></rect>
                    <rect x="64" y="384" width="64" height="64" rx="20" fill="#2DD4BF"></rect>

                    <!-- Colonne 2 -->
                    <rect x="144" y="144" width="64" height="64" rx="20" fill="#F97316"></rect>

                    <!-- Colonne 3 (Centre) -->
                    <rect x="224" y="224" width="64" height="64" rx="20" fill="#4ADE80"></rect>

                    <!-- Colonne 4 -->
                    <rect x="304" y="144" width="64" height="64" rx="20" fill="#D946EF"></rect>

                    <!-- Colonne 5 (Droite) -->
                    <rect x="384" y="64" width="64" height="64" rx="20" fill="#EC4899"></rect>
                    <rect x="384" y="144" width="64" height="64" rx="20" fill="#8B5CF6"></rect>
                    <rect x="384" y="224" width="64" height="64" rx="20" fill="#6366F1"></rect>
                    <rect x="384" y="304" width="64" height="64" rx="20" fill="#60A5FA"></rect>
                    <rect x="384" y="384" width="64" height="64" rx="20" fill="#38BDF8"></rect>
                </g>
            </svg>